{
  "accessors": [
    {
      "bufferView": 2,
      "componentType": 5126,
      "count": 988,
      "max": [
        1.3233200311660767,
        16.767900466918945,
        14.346099853515625
      ],
      "min": [
        -8.52318000793457,
        -1.110779047012329,
        9.015438079833984
      ],
      "type": "VEC3"
    },
    {
      "bufferView": 2,
      "byteOffset": 11856,
      "componentType": 5126,
      "count": 988,
      "max": [
        0.9769918322563171,
        0.9953470826148987,
        0.9696760773658752
      ],
      "min": [
        -0.9770870804786682,
        -0.9689463376998901,
        -0.966705322265625
      ],
      "type": "VEC3"
    },
    {
      "bufferView": 3,
      "componentType": 5126,
      "count": 988,
      "max": [
        1.0,
        1.0,
        0.9999666213989258,
        1.0
      ],
      "min": [
        -0.9999999403953552,
        -1.0,
        -0.999967634677887,
        1.0
      ],
      "type": "VEC4"
    },
    {
      "bufferView": 1,
      "componentType": 5126,
      "count": 988,
      "max": [
        0.8720700144767761,
        -0.023284999653697014
      ],
      "min": [
        0.278564989566803,
        -0.14856000244617462
      ],
      "type": "VEC2"
    },
    {
      "bufferView": 0,
      "componentType": 5125,
      "count": 1800,
      "type": "SCALAR"
    },
    {
      "bufferView": 2,
      "byteOffset": 23712,
      "componentType": 5126,
      "count": 12086,
      "max": [
        1.6490000486373901,
        17.90270233154297,
        14.528900146484375
      ],
      "min": [
        -8.947600364685059,
        -1.4552689790725708,
        7.351510047912598
      ],
      "type": "VEC3"
    },
    {
      "bufferView": 2,
      "byteOffset": 168744,
      "componentType": 5126,
      "count": 12086,
      "max": [
        1.0,
        1.0,
        1.0
      ],
      "min": [
        -1.0,
        -1.0,
        -1.0
      ],
      "type": "VEC3"
    },
    {
      "bufferView": 3,
      "byteOffset": 15808,
      "componentType": 5126,
      "count": 12086,
      "max": [
        1.0,
        1.0,
        1.0,
        1.0
      ],
      "min": [
        -1.0,
        -1.0,
        -1.0,
        -1.0
      ],
      "type": "VEC4"
    },
    {
      "bufferView": 1,
      "byteOffset": 7904,
      "componentType": 5126,
      "count": 12086,
      "max": [
        1.0712900161743164,
        -0.00685499981045723
      ],
      "min": [
        -0.19799800217151642,
        -0.9980469942092896
      ],
      "type": "VEC2"
    },
    {
      "bufferView": 0,
      "byteOffset": 7200,
      "componentType": 5125,
      "count": 22041,
      "type": "SCALAR"
    },
    {
      "bufferView": 2,
      "byteOffset": 313776,
      "componentType": 5126,
      "count": 414,
      "max": [
        11.884599685668945,
        -3.9607889652252197,
        12.609801292419434
      ],
      "min": [
        -6.250030040740967,
        -9.123918533325195,
        12.4118013381958
      ],
      "type": "VEC3"
    },
    {
      "bufferView": 2,
      "byteOffset": 318744,
      "componentType": 5126,
      "count": 414,
      "max": [
        1.0,
        1.0,
        1.0
      ],
      "min": [
        -1.0,
        -1.0,
        -0.0
      ],
      "type": "VEC3"
    },
    {
      "bufferView": 3,
      "byteOffset": 209184,
      "componentType": 5126,
      "count": 414,
      "max": [
        0.06790060549974442,
        0.004533780738711357,
        0.0,
        1.0
      ],
      "min": [
        -1.0,
        0.0,
        -1.0,
        1.0
      ],
      "type": "VEC4"
    },
    {
      "bufferView": 1,
      "byteOffset": 104592,
      "componentType": 5126,
      "count": 414,
      "max": [
        0.3125,
        -0.38696300983428955
      ],
      "min": [
        0.10064700245857239,
        -0.9990230202674866
      ],
      "type": "VEC2"
    },
    {
      "bufferView": 0,
      "byteOffset": 95364,
      "componentType": 5125,
      "count": 852,
      "type": "SCALAR"
    },
    {
      "bufferView": 2,
      "byteOffset": 323712,
      "componentType": 5126,
      "count": 11939,
      "max": [
        1.2186100482940674,
        -3.6219189167022705,
        12.548900604248047
      ],
      "min": [
        -8.551739692687988,
        -12.238598823547363,
        3.5343809127807617
      ],
      "type": "VEC3"
    },
    {
      "bufferView": 2,
      "byteOffset": 466980,
      "componentType": 5126,
      "count": 11939,
      "max": [
        1.0,
        1.0,
        1.0
      ],
      "min": [
        -1.0,
        -1.0,
        -1.0
      ],
      "type": "VEC3"
    },
    {
      "bufferView": 3,
      "byteOffset": 215808,
      "componentType": 5126,
      "count": 11939,
      "max": [
        1.0,
        1.0,
        1.0,
        1.0
      ],
      "min": [
        -1.0,
        -1.0,
        -1.0,
        -1.0
      ],
      "type": "VEC4"
    },
    {
      "bufferView": 1,
      "byteOffset": 107904,
      "componentType": 5126,
      "count": 11939,
      "max": [
        0.9990230202674866,
        -0.0010720000136643648
      ],
      "min": [
        0.001218999968841672,
        -0.9990230202674866
      ],
      "type": "VEC2"
    },
    {
      "bufferView": 0,
      "byteOffset": 98772,
      "componentType": 5125,
      "count": 21948,
      "type": "SCALAR"
    },
    {
      "bufferView": 2,
      "byteOffset": 610248,
      "componentType": 5126,
      "count": 5801,
      "max": [
        2.1395299434661865,
        -6.26154899597168,
        12.128801345825195
      ],
      "min": [
        -9.472660064697266,
        -10.693498611450195,
        6.582991123199463
      ],
      "type": "VEC3"
    },
    {
      "bufferView": 2,
      "byteOffset": 679860,
      "componentType": 5126,
      "count": 5801,
      "max": [
        1.0,
        1.0,
        1.0
      ],
      "min": [
        -1.0,
        -1.0,
        -1.0
      ],
      "type": "VEC3"
    },
    {
      "bufferView": 3,
      "byteOffset": 406832,
      "componentType": 5126,
      "count": 5801,
      "max": [
        1.0,
        1.0,
        1.0,
        1.0
      ],
      "min": [
        -1.0,
        -1.0,
        -1.0,
        -1.0
      ],
      "type": "VEC4"
    },
    {
      "bufferView": 1,
      "byteOffset": 203416,
      "componentType": 5126,
      "count": 5801,
      "max": [
        0.9985349774360657,
        -0.0012229999992996454
      ],
      "min": [
        0.03982499986886978,
        -0.9990230202674866
      ],
      "type": "VEC2"
    },
    {
      "bufferView": 0,
      "byteOffset": 186564,
      "componentType": 5125,
      "count": 10404,
      "type": "SCALAR"
    },
    {
      "bufferView": 2,
      "byteOffset": 749472,
      "componentType": 5126,
      "count": 11956,
      "max": [
        14.188199996948242,
        -3.6219189167022705,
        12.548900604248047
      ],
      "min": [
        4.417870044708252,
        -12.238598823547363,
        3.5343809127807617
      ],
      "type": "VEC3"
    },
    {
      "bufferView": 2,
      "byteOffset": 892944,
      "componentType": 5126,
      "count": 11956,
      "max": [
        1.0,
        1.0,
        1.0
      ],
      "min": [
        -1.0,
        -1.0,
        -1.0
      ],
      "type": "VEC3"
    },
    {
      "bufferView": 3,
      "byteOffset": 499648,
      "componentType": 5126,
      "count": 11956,
      "max": [
        1.0,
        1.0,
        1.0,
        1.0
      ],
      "min": [
        -1.0,
        -1.0,
        -1.0,
        -1.0
      ],
      "type": "VEC4"
    },
    {
      "bufferView": 1,
      "byteOffset": 249824,
      "componentType": 5126,
      "count": 11956,
      "max": [
        0.9990230202674866,
        -0.0010720000136643648
      ],
      "min": [
        0.001218999968841672,
        -0.9990230202674866
      ],
      "type": "VEC2"
    },
    {
      "bufferView": 0,
      "byteOffset": 228180,
      "componentType": 5125,
      "count": 21948,
      "type": "SCALAR"
    },
    {
      "bufferView": 2,
      "byteOffset": 1036416,
      "componentType": 5126,
      "count": 5789,
      "max": [
        15.109100341796875,
        -6.26154899597168,
        12.128801345825195
      ],
      "min": [
        3.4969499111175537,
        -10.693498611450195,
        6.582991123199463
      ],
      "type": "VEC3"
    },
    {
      "bufferView": 2,
      "byteOffset": 1105884,
      "componentType": 5126,
      "count": 5789,
      "max": [
        1.0,
        1.0,
        1.0
      ],
      "min": [
        -1.0,
        -1.0,
        -1.0
      ],
      "type": "VEC3"
    },
    {
      "bufferView": 3,
      "byteOffset": 690944,
      "componentType": 5126,
      "count": 5789,
      "max": [
        1.0,
        1.0,
        1.0,
        1.0
      ],
      "min": [
        -1.0,
        -1.0,
        -1.0,
        -1.0
      ],
      "type": "VEC4"
    },
    {
      "bufferView": 1,
      "byteOffset": 345472,
      "componentType": 5126,
      "count": 5789,
      "max": [
        0.9985349774360657,
        -0.0012229999992996454
      ],
      "min": [
        0.03982499986886978,
        -0.9990230202674866
      ],
      "type": "VEC2"
    },
    {
      "bufferView": 0,
      "byteOffset": 315972,
      "componentType": 5125,
      "count": 10404,
      "type": "SCALAR"
    },
    {
      "bufferView": 2,
      "byteOffset": 1175352,
      "componentType": 5126,
      "count": 8541,
      "max": [
        13.780699729919434,
        -1.2402490377426147,
        12.60219955444336
      ],
      "min": [
        -8.723150253295898,
        -4.170208930969238,
        4.720439910888672
      ],
      "type": "VEC3"
    },
    {
      "bufferView": 2,
      "byteOffset": 1277844,
      "componentType": 5126,
      "count": 8541,
      "max": [
        1.0,
        1.0,
        1.0
      ],
      "min": [
        -1.0,
        -1.0,
        -1.0
      ],
      "type": "VEC3"
    },
    {
      "bufferView": 3,
      "byteOffset": 783568,
      "componentType": 5126,
      "count": 8541,
      "max": [
        1.0,
        1.0,
        1.0,
        1.0
      ],
      "min": [
        -1.0,
        -1.0,
        -1.0,
        -1.0
      ],
      "type": "VEC4"
    },
    {
      "bufferView": 1,
      "byteOffset": 391784,
      "componentType": 5126,
      "count": 8541,
      "max": [
        0.9990230202674866,
        -0.0015650000423192978
      ],
      "min": [
        0.03830000013113022,
        -0.9990230202674866
      ],
      "type": "VEC2"
    },
    {
      "bufferView": 0,
      "byteOffset": 357588,
      "componentType": 5125,
      "count": 16494,
      "type": "SCALAR"
    },
    {
      "bufferView": 2,
      "byteOffset": 1380336,
      "componentType": 5126,
      "count": 13769,
      "max": [
        0.3391279876232147,
        17.79599952697754,
        6.186288833618164
      ],
      "min": [
        -6.921999931335449,
        2.937700033187866,
        2.482429027557373
      ],
      "type": "VEC3"
    },
    {
      "bufferView": 2,
      "byteOffset": 1545564,
      "componentType": 5126,
      "count": 13769,
      "max": [
        1.0,
        1.0,
        1.0
      ],
      "min": [
        -1.0,
        -1.0,
        -1.0
      ],
      "type": "VEC3"
    },
    {
      "bufferView": 3,
      "byteOffset": 920224,
      "componentType": 5126,
      "count": 13769,
      "max": [
        1.0,
        1.0,
        1.0,
        1.0
      ],
      "min": [
        -1.0,
        -1.0,
        -1.0,
        -1.0
      ],
      "type": "VEC4"
    },
    {
      "bufferView": 1,
      "byteOffset": 460112,
      "componentType": 5126,
      "count": 13769,
      "max": [
        0.9902340173721313,
        -0.0013229999458417296
      ],
      "min": [
        0.00092299998505041,
        -0.9990230202674866
      ],
      "type": "VEC2"
    },
    {
      "bufferView": 0,
      "byteOffset": 423564,
      "componentType": 5125,
      "count": 26043,
      "type": "SCALAR"
    },
    {
      "bufferView": 2,
      "byteOffset": 1710792,
      "componentType": 5126,
      "count": 3330,
      "max": [
        13.415300369262695,
        14.641599655151367,
        4.321759223937988
      ],
      "min": [
        -7.777160167694092,
        -6.869830131530762,
        2.6976490020751953
      ],
      "type": "VEC3"
    },
    {
      "bufferView": 2,
      "byteOffset": 1750752,
      "componentType": 5126,
      "count": 3330,
      "max": [
        1.0,
        1.0,
        1.0
      ],
      "min": [
        -1.0,
        -1.0,
        -1.0
      ],
      "type": "VEC3"
    },
    {
      "bufferView": 3,
      "byteOffset": 1140528,
      "componentType": 5126,
      "count": 3330,
      "max": [
        1.0,
        1.0,
        1.0,
        1.0
      ],
      "min": [
        -1.0,
        -1.0,
        -1.0,
        -1.0
      ],
      "type": "VEC4"
    },
    {
      "bufferView": 1,
      "byteOffset": 570264,
      "componentType": 5126,
      "count": 3330,
      "max": [
        0.9609379768371582,
        -0.01750200055539608
      ],
      "min": [
        0.011597000062465668,
        -0.9990230202674866
      ],
      "type": "VEC2"
    },
    {
      "bufferView": 0,
      "byteOffset": 527736,
      "componentType": 5125,
      "count": 6318,
      "type": "SCALAR"
    },
    {
      "bufferView": 2,
      "byteOffset": 1790712,
      "componentType": 5126,
      "count": 13738,
      "max": [
        13.308699607849121,
        17.79599952697754,
        6.186288833618164
      ],
      "min": [
        6.047609806060791,
        2.937700033187866,
        2.482429027557373
      ],
      "type": "VEC3"
    },
    {
      "bufferView": 2,
      "byteOffset": 1955568,
      "componentType": 5126,
      "count": 13738,
      "max": [
        1.0,
        1.0,
        1.0
      ],
      "min": [
        -1.0,
        -1.0,
        -1.0
      ],
      "type": "VEC3"
    },
    {
      "bufferView": 3,
      "byteOffset": 1193808,
      "componentType": 5126,
      "count": 13738,
      "max": [
        1.0,
        1.0,
        1.0,
        1.0
      ],
      "min": [
        -1.0,
        -1.0,
        -1.0,
        -1.0
      ],
      "type": "VEC4"
    },
    {
      "bufferView": 1,
      "byteOffset": 596904,
      "componentType": 5126,
      "count": 13738,
      "max": [
        0.9902340173721313,
        -0.0013229999458417296
      ],
      "min": [
        0.00092299998505041,
        -0.9990230202674866
      ],
      "type": "VEC2"
    },
    {
      "bufferView": 0,
      "byteOffset": 553008,
      "componentType": 5125,
      "count": 26043,
      "type": "SCALAR"
    },
    {
      "bufferView": 2,
      "byteOffset": 2120424,
      "componentType": 5126,
      "count": 9918,
      "max": [
        14.150099754333496,
        17.384700775146484,
        9.129670143127441
      ],
      "min": [
        -7.777160167694092,
        -3.6447699069976807,
        1.7505090236663818
      ],
      "type": "VEC3"
    },
    {
      "bufferView": 2,
      "byteOffset": 2239440,
      "componentType": 5126,
      "count": 9918,
      "max": [
        1.0,
        1.0,
        1.0
      ],
      "min": [
        -1.0,
        -1.0,
        -1.0
      ],
      "type": "VEC3"
    },
    {
      "bufferView": 3,
      "byteOffset": 1413616,
      "componentType": 5126,
      "count": 9918,
      "max": [
        1.0,
        1.0,
        1.0,
        1.0
      ],
      "min": [
        -1.0,
        -1.0,
        -1.0,
        -1.0
      ],
      "type": "VEC4"
    },
    {
      "bufferView": 1,
      "byteOffset": 706808,
      "componentType": 5126,
      "count": 9918,
      "max": [
        0.9985349774360657,
        -0.01750200055539608
      ],
      "min": [
        0.0009050000226125121,
        -0.9980469942092896
      ],
      "type": "VEC2"
    },
    {
      "bufferView": 0,
      "byteOffset": 657180,
      "componentType": 5125,
      "count": 18783,
      "type": "SCALAR"
    },
    {
      "bufferView": 2,
      "byteOffset": 2358456,
      "componentType": 5126,
      "count": 7535,
      "max": [
        13.69320011138916,
        17.064899444580078,
        7.275360107421875
      ],
      "min": [
        4.307449817657471,
        -10.540300369262695,
        2.578660011291504
      ],
      "type": "VEC3"
    },
    {
      "bufferView": 2,
      "byteOffset": 2448876,
      "componentType": 5126,
      "count": 7535,
      "max": [
        1.0,
        1.0,
        1.0
      ],
      "min": [
        -1.0,
        -1.0,
        -1.0
      ],
      "type": "VEC3"
    },
    {
      "bufferView": 3,
      "byteOffset": 1572304,
      "componentType": 5126,
      "count": 7535,
      "max": [
        1.0,
        1.0,
        1.0,
        1.0
      ],
      "min": [
        -1.0,
        -1.0,
        -1.0,
        -1.0
      ],
      "type": "VEC4"
    },
    {
      "bufferView": 1,
      "byteOffset": 786152,
      "componentType": 5126,
      "count": 7535,
      "max": [
        0.9985349774360657,
        -0.0013729999773204327
      ],
      "min": [
        0.0009699999936856329,
        -0.9990230202674866
      ],
      "type": "VEC2"
    },
    {
      "bufferView": 0,
      "byteOffset": 732312,
      "componentType": 5125,
      "count": 14151,
      "type": "SCALAR"
    },
    {
      "bufferView": 2,
      "byteOffset": 2539296,
      "componentType": 5126,
      "count": 6992,
      "max": [
        6.692920207977295,
        17.064899444580078,
        7.275360107421875
      ],
      "min": [
        -8.66215991973877,
        -10.540300369262695,
        2.578660011291504
      ],
      "type": "VEC3"
    },
    {
      "bufferView": 2,
      "byteOffset": 2623200,
      "componentType": 5126,
      "count": 6992,
      "max": [
        1.0,
        1.0,
        1.0
      ],
      "min": [
        -1.0,
        -1.0,
        -1.0
      ],
      "type": "VEC3"
    },
    {
      "bufferView": 3,
      "byteOffset": 1692864,
      "componentType": 5126,
      "count": 6992,
      "max": [
        1.0,
        1.0,
        1.0,
        1.0
      ],
      "min": [
        -1.0,
        -1.0,
        -1.0,
        -1.0
      ],
      "type": "VEC4"
    },
    {
      "bufferView": 1,
      "byteOffset": 846432,
      "componentType": 5126,
      "count": 6992,
      "max": [
        0.9985349774360657,
        -0.0013729999773204327
      ],
      "min": [
        0.0009699999936856329,
        -0.9990230202674866
      ],
      "type": "VEC2"
    },
    {
      "bufferView": 0,
      "byteOffset": 788916,
      "componentType": 5125,
      "count": 13209,
      "type": "SCALAR"
    },
    {
      "bufferView": 2,
      "byteOffset": 2707104,
      "componentType": 5126,
      "count": 511,
      "max": [
        14.192000389099121,
        -1.5125099420547485,
        11.894000053405762
      ],
      "min": [
        -8.555580139160156,
        -11.278999328613281,
        4.398709774017334
      ],
      "type": "VEC3"
    },
    {
      "bufferView": 2,
      "byteOffset": 2713236,
      "componentType": 5126,
      "count": 511,
      "max": [
        1.0,
        0.9802834391593933,
        1.0
      ],
      "min": [
        -1.0,
        -0.9929876327514648,
        -0.3536864221096039
      ],
      "type": "VEC3"
    },
    {
      "bufferView": 1,
      "byteOffset": 902368,
      "componentType": 5126,
      "count": 511,
      "max": [
        0.9965819716453552,
        -0.008849999867379665
      ],
      "min": [
        0.004604000132530928,
        -0.9726560115814209
      ],
      "type": "VEC2"
    },
    {
      "bufferView": 0,
      "byteOffset": 841752,
      "componentType": 5125,
      "count": 852,
      "type": "SCALAR"
    },
    {
      "bufferView": 2,
      "byteOffset": 2719368,
      "componentType": 5126,
      "count": 861,
      "max": [
        14.00160026550293,
        -9.953989028930664,
        12.38900089263916
      ],
      "min": [
        -8.365169525146484,
        -11.347599983215332,
        5.200211048126221
      ],
      "type": "VEC3"
    },
    {
      "bufferView": 2,
      "byteOffset": 2729700,
      "componentType": 5126,
      "count": 861,
      "max": [
        1.0,
        0.25910475850105286,
        0.9691886901855469
      ],
      "min": [
        -1.0,
        -1.0,
        -0.9633070230484009
      ],
      "type": "VEC3"
    },
    {
      "bufferView": 3,
      "byteOffset": 1804736,
      "componentType": 5126,
      "count": 861,
      "max": [
        1.0,
        0.598441481590271,
        0.30405259132385254,
        1.0
      ],
      "min": [
        -1.0,
        -1.0,
        -0.9999993443489075,
        -1.0
      ],
      "type": "VEC4"
    },
    {
      "bufferView": 1,
      "byteOffset": 906456,
      "componentType": 5126,
      "count": 861,
      "max": [
        0.9975590109825134,
        -0.004490000195801258
      ],
      "min": [
        0.0737299993634224,
        -0.6767579913139343
      ],
      "type": "VEC2"
    },
    {
      "bufferView": 0,
      "byteOffset": 845160,
      "componentType": 5125,
      "count": 1536,
      "type": "SCALAR"
    },
    {
      "bufferView": 2,
      "byteOffset": 2740032,
      "componentType": 5126,
      "count": 2016,
      "max": [
        14.005200386047363,
        17.262901306152344,
        12.366101264953613
      ],
      "min": [
        -8.369230270385742,
        -11.362798690795898,
        3.595299005508423
      ],
      "type": "VEC3"
    },
    {
      "bufferView": 2,
      "byteOffset": 2764224,
      "componentType": 5126,
      "count": 2016,
      "max": [
        1.0,
        1.0,
        0.9732511043548584
      ],
      "min": [
        -1.0,
        -1.0,
        -0.9670310020446777
      ],
      "type": "VEC3"
    },
    {
      "bufferView": 3,
      "byteOffset": 1818512,
      "componentType": 5126,
      "count": 2016,
      "max": [
        1.0,
        1.0,
        1.0,
        1.0
      ],
      "min": [
        -1.0,
        -0.9770942330360413,
        -1.0,
        -1.0
      ],
      "type": "VEC4"
    },
    {
      "bufferView": 1,
      "byteOffset": 913344,
      "componentType": 5126,
      "count": 2016,
      "max": [
        1.0029300451278687,
        -0.006316999904811382
      ],
      "min": [
        -0.0746460035443306,
        -0.9960939884185791
      ],
      "type": "VEC2"
    },
    {
      "bufferView": 0,
      "byteOffset": 851304,
      "componentType": 5125,
      "count": 3270,
      "type": "SCALAR"
    },
    {
      "bufferView": 2,
      "byteOffset": 2788416,
      "componentType": 5126,
      "count": 1299,
      "max": [
        14.013099670410156,
        17.26289939880371,
        12.366101264953613
      ],
      "min": [
        -8.37658977508545,
        -11.385699272155762,
        4.796600818634033
      ],
      "type": "VEC3"
    },
    {
      "bufferView": 2,
      "byteOffset": 2804004,
      "componentType": 5126,
      "count": 1299,
      "max": [
        1.0,
        1.0,
        0.9476369619369507
      ],
      "min": [
        -1.0,
        -1.0,
        -0.9402311444282532
      ],
      "type": "VEC3"
    },
    {
      "bufferView": 3,
      "byteOffset": 1850768,
      "componentType": 5126,
      "count": 1299,
      "max": [
        1.0,
        1.0,
        1.0,
        1.0
      ],
      "min": [
        -1.0,
        -0.9999696612358093,
        -0.9999902248382568,
        -1.0
      ],
      "type": "VEC4"
    },
    {
      "bufferView": 1,
      "byteOffset": 929472,
      "componentType": 5126,
      "count": 1299,
      "max": [
        0.9570310115814209,
        -0.006626000162214041
      ],
      "min": [
        0.011146999895572662,
        -0.9965819716453552
      ],
      "type": "VEC2"
    },
    {
      "bufferView": 0,
      "byteOffset": 864384,
      "componentType": 5125,
      "count": 2442,
      "type": "SCALAR"
    },
    {
      "bufferView": 2,
      "byteOffset": 2819592,
      "componentType": 5126,
      "count": 703,
      "max": [
        11.528599739074707,
        17.034400939941406,
        6.681367874145508
      ],
      "min": [
        -8.669770240783691,
        16.31100082397461,
        3.583878993988037
      ],
      "type": "VEC3"
    },
    {
      "bufferView": 2,
      "byteOffset": 2828028,
      "componentType": 5126,
      "count": 703,
      "max": [
        1.0,
        1.0,
        1.0
      ],
      "min": [
        -1.0,
        -0.9947225451469421,
        -1.0
      ],
      "type": "VEC3"
    },
    {
      "bufferView": 3,
      "byteOffset": 1871552,
      "componentType": 5126,
      "count": 703,
      "max": [
        1.0,
        1.0,
        1.0,
        1.0
      ],
      "min": [
        -1.0,
        -1.0,
        -1.0,
        -1.0
      ],
      "type": "VEC4"
    },
    {
      "bufferView": 1,
      "byteOffset": 939864,
      "componentType": 5126,
      "count": 703,
      "max": [
        0.9941409826278687,
        -0.002982999896630645
      ],
      "min": [
        0.031585998833179474,
        -0.7900390028953552
      ],
      "type": "VEC2"
    },
    {
      "bufferView": 0,
      "byteOffset": 874152,
      "componentType": 5125,
      "count": 1434,
      "type": "SCALAR"
    },
    {
      "bufferView": 2,
      "byteOffset": 2836464,
      "componentType": 5126,
      "count": 369,
      "max": [
        12.794599533081055,
        -11.180000305175781,
        5.615241050720215
      ],
      "min": [
        -7.1581501960754395,
        -11.34000015258789,
        4.796600818634033
      ],
      "type": "VEC3"
    },
    {
      "bufferView": 2,
      "byteOffset": 2840892,
      "componentType": 5126,
      "count": 369,
      "max": [
        0.8533090353012085,
        -0.5214055180549622,
        0.8497575521469116
      ],
      "min": [
        -0.8533090353012085,
        -1.0,
        -0.8533090353012085
      ],
      "type": "VEC3"
    },
    {
      "bufferView": 3,
      "byteOffset": 1882800,
      "componentType": 5126,
      "count": 369,
      "max": [
        -0.5202158093452454,
        0.8533090353012085,
        0.3697645962238312,
        1.0
      ],
      "min": [
        -1.0,
        -0.8533090353012085,
        -0.3239261507987976,
        1.0
      ],
      "type": "VEC4"
    },
    {
      "bufferView": 1,
      "byteOffset": 945488,
      "componentType": 5126,
      "count": 369,
      "max": [
        0.9985349774360657,
        -0.37133800983428955
      ],
      "min": [
        0.9707030057907104,
        -0.39917001128196716
      ],
      "type": "VEC2"
    },
    {
      "bufferView": 0,
      "byteOffset": 879888,
      "componentType": 5125,
      "count": 672,
      "type": "SCALAR"
    },
    {
      "bufferView": 2,
      "byteOffset": 2845320,
      "componentType": 5126,
      "count": 10521,
      "max": [
        0.5484690070152283,
        -3.758989095687866,
        12.556501388549805
      ],
      "min": [
        -7.881598949432373,
        -11.2485990524292,
        6.44149112701416
      ],
      "type": "VEC3"
    },
    {
      "bufferView": 2,
      "byteOffset": 2971572,
      "componentType": 5126,
      "count": 10521,
      "max": [
        1.0,
        1.0,
        1.0
      ],
      "min": [
        -1.0,
        -1.0,
        -1.0
      ],
      "type": "VEC3"
    },
    {
      "bufferView": 3,
      "byteOffset": 1888704,
      "componentType": 5126,
      "count": 10521,
      "max": [
        1.0,
        1.0,
        1.0,
        1.0
      ],
      "min": [
        -1.0,
        -1.0,
        -1.0,
        -1.0
      ],
      "type": "VEC4"
    },
    {
      "bufferView": 1,
      "byteOffset": 948440,
      "componentType": 5126,
      "count": 10521,
      "max": [
        0.9990230202674866,
        -0.0003589999978430569
      ],
      "min": [
        0.0011269999668002129,
        -0.9990230202674866
      ],
      "type": "VEC2"
    },
    {
      "bufferView": 0,
      "byteOffset": 882576,
      "componentType": 5125,
      "count": 19689,
      "type": "SCALAR"
    },
    {
      "bufferView": 2,
      "byteOffset": 3097824,
      "componentType": 5126,
      "count": 4375,
      "max": [
        0.5706149935722351,
        -6.393259048461914,
        11.938401222229004
      ],
      "min": [
        -7.903759956359863,
        -10.365999221801758,
        6.773381233215332
      ],
      "type": "VEC3"
    },
    {
      "bufferView": 2,
      "byteOffset": 3150324,
      "componentType": 5126,
      "count": 4375,
      "max": [
        1.0,
        1.0,
        1.0
      ],
      "min": [
        -1.0,
        -1.0,
        -1.0
      ],
      "type": "VEC3"
    },
    {
      "bufferView": 3,
      "byteOffset": 2057040,
      "componentType": 5126,
      "count": 4375,
      "max": [
        1.0,
        1.0,
        1.0,
        1.0
      ],
      "min": [
        -1.0,
        -1.0,
        -1.0,
        -1.0
      ],
      "type": "VEC4"
    },
    {
      "bufferView": 1,
      "byteOffset": 1032608,
      "componentType": 5126,
      "count": 4375,
      "max": [
        0.9990230202674866,
        -0.0012209999840706587
      ],
      "min": [
        0.0010359999723732471,
        -0.979981005191803
      ],
      "type": "VEC2"
    },
    {
      "bufferView": 0,
      "byteOffset": 961332,
      "componentType": 5125,
      "count": 7884,
      "type": "SCALAR"
    },
    {
      "bufferView": 2,
      "byteOffset": 3202824,
      "componentType": 5126,
      "count": 10521,
      "max": [
        13.518099784851074,
        -3.758989095687866,
        12.556501388549805
      ],
      "min": [
        5.088009834289551,
        -11.2485990524292,
        6.44149112701416
      ],
      "type": "VEC3"
    },
    {
      "bufferView": 2,
      "byteOffset": 3329076,
      "componentType": 5126,
      "count": 10521,
      "max": [
        1.0,
        1.0,
        1.0
      ],
      "min": [
        -1.0,
        -1.0,
        -1.0
      ],
      "type": "VEC3"
    },
    {
      "bufferView": 3,
      "byteOffset": 2127040,
      "componentType": 5126,
      "count": 10521,
      "max": [
        1.0,
        1.0,
        1.0,
        1.0
      ],
      "min": [
        -1.0,
        -1.0,
        -1.0,
        -1.0
      ],
      "type": "VEC4"
    },
    {
      "bufferView": 1,
      "byteOffset": 1067608,
      "componentType": 5126,
      "count": 10521,
      "max": [
        0.9990230202674866,
        -0.0003589999978430569
      ],
      "min": [
        0.0011269999668002129,
        -0.9990230202674866
      ],
      "type": "VEC2"
    },
    {
      "bufferView": 0,
      "byteOffset": 992868,
      "componentType": 5125,
      "count": 19689,
      "type": "SCALAR"
    },
    {
      "bufferView": 2,
      "byteOffset": 3455328,
      "componentType": 5126,
      "count": 4404,
      "max": [
        13.540200233459473,
        -6.393259048461914,
        11.938401222229004
      ],
      "min": [
        5.065849781036377,
        -10.365999221801758,
        6.773381233215332
      ],
      "type": "VEC3"
    },
    {
      "bufferView": 2,
      "byteOffset": 3508176,
      "componentType": 5126,
      "count": 4404,
      "max": [
        1.0,
        1.0,
        1.0
      ],
      "min": [
        -1.0,
        -1.0,
        -1.0
      ],
      "type": "VEC3"
    },
    {
      "bufferView": 3,
      "byteOffset": 2295376,
      "componentType": 5126,
      "count": 4404,
      "max": [
        1.0,
        1.0,
        1.0,
        1.0
      ],
      "min": [
        -1.0,
        -1.0,
        -1.0,
        -1.0
      ],
      "type": "VEC4"
    },
    {
      "bufferView": 1,
      "byteOffset": 1151776,
      "componentType": 5126,
      "count": 4404,
      "max": [
        0.9990230202674866,
        -0.0012209999840706587
      ],
      "min": [
        0.0010359999723732471,
        -0.979981005191803
      ],
      "type": "VEC2"
    },
    {
      "bufferView": 0,
      "byteOffset": 1071624,
      "componentType": 5125,
      "count": 7884,
      "type": "SCALAR"
    },
    {
      "bufferView": 2,
      "byteOffset": 3561024,
      "componentType": 5126,
      "count": 24,
      "max": [
        11.345800399780273,
        -4.5052690505981445,
        12.548900604248047
      ],
      "min": [
        -5.709350109100342,
        -8.583229064941406,
        12.548900604248047
      ],
      "type": "VEC3"
    },
    {
      "bufferView": 2,
      "byteOffset": 3561312,
      "componentType": 5126,
      "count": 24,
      "max": [
        -0.0,
        0.0,
        -1.0
      ],
      "min": [
        -0.0,
        0.0,
        -1.0
      ],
      "type": "VEC3"
    },
    {
      "bufferView": 3,
      "byteOffset": 2365840,
      "componentType": 5126,
      "count": 24,
      "max": [
        0.0,
        1.0,
        0.0,
        1.0
      ],
      "min": [
        0.0,
        1.0,
        0.0,
        1.0
      ],
      "type": "VEC4"
    },
    {
      "bufferView": 1,
      "byteOffset": 1187008,
      "componentType": 5126,
      "count": 24,
      "max": [
        0.3002929985523224,
        -0.191894993185997
      ],
      "min": [
        0.09088099747896194,
        -0.4013670086860657
      ],
      "type": "VEC2"
    },
    {
      "bufferView": 0,
      "byteOffset": 1103160,
      "componentType": 5125,
      "count": 60,
      "type": "SCALAR"
    },
    {
      "bufferView": 2,
      "byteOffset": 3561600,
      "componentType": 5126,
      "count": 141,
      "max": [
        11.924599647521973,
        16.684099197387695,
        5.200209140777588
      ],
      "min": [
        6.682819843292236,
        16.599199295043945,
        4.8005290031433105
      ],
      "type": "VEC3"
    },
    {
      "bufferView": 2,
      "byteOffset": 3563292,
      "componentType": 5126,
      "count": 141,
      "max": [
        0.770788848400116,
        1.0,
        0.7778058648109436
      ],
      "min": [
        -0.7778058648109436,
        0.6237137317657471,
        -0.770788848400116
      ],
      "type": "VEC3"
    },
    {
      "bufferView": 3,
      "byteOffset": 2366224,
      "componentType": 5126,
      "count": 141,
      "max": [
        -0.6285046935081482,
        0.7707887887954712,
        0.21337227523326874,
        1.0
      ],
      "min": [
        -1.0,
        -0.7778058052062988,
        -0.2702123522758484,
        1.0
      ],
      "type": "VEC4"
    },
    {
      "bufferView": 1,
      "byteOffset": 1187200,
      "componentType": 5126,
      "count": 141,
      "max": [
        0.5522459745407104,
        -0.3811039924621582
      ],
      "min": [
        0.4870609939098358,
        -0.7631840109825134
      ],
      "type": "VEC2"
    },
    {
      "bufferView": 0,
      "byteOffset": 1103400,
      "componentType": 5125,
      "count": 240,
      "type": "SCALAR"
    },
    {
      "bufferView": 2,
      "byteOffset": 3564984,
      "componentType": 5126,
      "count": 9394,
      "max": [
        0.2933560013771057,
        -9.047779083251953,
        11.72650146484375
      ],
      "min": [
        -7.428490161895752,
        -11.233399391174316,
        6.471951007843018
      ],
      "type": "VEC3"
    },
    {
      "bufferView": 2,
      "byteOffset": 3677712,
      "componentType": 5126,
      "count": 9394,
      "max": [
        1.0,
        1.0,
        1.0
      ],
      "min": [
        -1.0,
        -1.0,
        -1.0
      ],
      "type": "VEC3"
    },
    {
      "bufferView": 3,
      "byteOffset": 2368480,
      "componentType": 5126,
      "count": 9394,
      "max": [
        1.0,
        1.0,
        1.0,
        1.0
      ],
      "min": [
        -1.0,
        -1.0,
        -1.0,
        -1.0
      ],
      "type": "VEC4"
    },
    {
      "bufferView": 1,
      "byteOffset": 1188328,
      "componentType": 5126,
      "count": 9394,
      "max": [
        0.9985349774360657,
        -0.0012209999840706587
      ],
      "min": [
        0.0011249999515712261,
        -0.9990230202674866
      ],
      "type": "VEC2"
    },
    {
      "bufferView": 0,
      "byteOffset": 1104360,
      "componentType": 5125,
      "count": 16176,
      "type": "SCALAR"
    },
    {
      "bufferView": 2,
      "byteOffset": 3790440,
      "componentType": 5126,
      "count": 9430,
      "max": [
        13.262999534606934,
        -9.047779083251953,
        11.72650146484375
      ],
      "min": [
        5.5411200523376465,
        -11.233399391174316,
        6.471951007843018
      ],
      "type": "VEC3"
    },
    {
      "bufferView": 2,
      "byteOffset": 3903600,
      "componentType": 5126,
      "count": 9430,
      "max": [
        1.0,
        1.0,
        1.0
      ],
      "min": [
        -1.0,
        -1.0,
        -1.0
      ],
      "type": "VEC3"
    },
    {
      "bufferView": 3,
      "byteOffset": 2518784,
      "componentType": 5126,
      "count": 9430,
      "max": [
        1.0,
        1.0,
        1.0,
        1.0
      ],
      "min": [
        -1.0,
        -1.0,
        -1.0,
        -1.0
      ],
      "type": "VEC4"
    },
    {
      "bufferView": 1,
      "byteOffset": 1263480,
      "componentType": 5126,
      "count": 9430,
      "max": [
        0.9985349774360657,
        -0.0012209999840706587
      ],
      "min": [
        0.0011249999515712261,
        -0.9990230202674866
      ],
      "type": "VEC2"
    },
    {
      "bufferView": 0,
      "byteOffset": 1169064,
      "componentType": 5125,
      "count": 16176,
      "type": "SCALAR"
    },
    {
      "bufferView": 2,
      "byteOffset": 4016760,
      "componentType": 5126,
      "count": 2606,
      "max": [
        12.984999656677246,
        -8.217690467834473,
        9.518031120300293
      ],
      "min": [
        -1.9426699876785278,
        -10.007299423217773,
        8.352901458740234
      ],
      "type": "VEC3"
    },
    {
      "bufferView": 2,
      "byteOffset": 4048032,
      "componentType": 5126,
      "count": 2606,
      "max": [
        0.9998463988304138,
        0.9997214674949646,
        0.9317097663879395
      ],
      "min": [
        -0.9999392032623291,
        -0.9988855719566345,
        -0.9988855719566345
      ],
      "type": "VEC3"
    },
    {
      "bufferView": 3,
      "byteOffset": 2669664,
      "componentType": 5126,
      "count": 2606,
      "max": [
        1.0,
        0.991873025894165,
        0.998201847076416,
        1.0
      ],
      "min": [
        -1.0,
        -0.9899386763572693,
        -0.9984528422355652,
        1.0
      ],
      "type": "VEC4"
    },
    {
      "bufferView": 1,
      "byteOffset": 1338920,
      "componentType": 5126,
      "count": 2606,
      "max": [
        0.9921879768371582,
        -0.03439300134778023
      ],
      "min": [
        0.0008449999731965363,
        -0.9213870167732239
      ],
      "type": "VEC2"
    },
    {
      "bufferView": 0,
      "byteOffset": 1233768,
      "componentType": 5125,
      "count": 4722,
      "type": "SCALAR"
    },
    {
      "bufferView": 2,
      "byteOffset": 4079304,
      "componentType": 5126,
      "count": 8901,
      "max": [
        1.336400032043457,
        16.92020034790039,
        9.015439987182617
      ],
      "min": [
        -8.67002010345459,
        -1.289749026298523,
        1.4675489664077759
      ],
      "type": "VEC3"
    },
    {
      "bufferView": 2,
      "byteOffset": 4186116,
      "componentType": 5126,
      "count": 8901,
      "max": [
        1.0,
        1.0,
        1.0
      ],
      "min": [
        -1.0,
        -1.0,
        -1.0
      ],
      "type": "VEC3"
    },
    {
      "bufferView": 3,
      "byteOffset": 2711360,
      "componentType": 5126,
      "count": 8901,
      "max": [
        1.0,
        1.0,
        1.0,
        1.0
      ],
      "min": [
        -1.0,
        -1.0,
        -1.0,
        -1.0
      ],
      "type": "VEC4"
    },
    {
      "bufferView": 1,
      "byteOffset": 1359768,
      "componentType": 5126,
      "count": 8901,
      "max": [
        0.9965819716453552,
        -0.0023799999617040157
      ],
      "min": [
        0.0014600000577047467,
        -0.9985349774360657
      ],
      "type": "VEC2"
    },
    {
      "bufferView": 0,
      "byteOffset": 1252656,
      "componentType": 5125,
      "count": 15741,
      "type": "SCALAR"
    },
    {
      "bufferView": 2,
      "byteOffset": 4292928,
      "componentType": 5126,
      "count": 9932,
      "max": [
        1.1614899635314941,
        16.82120132446289,
        11.063899993896484
      ],
      "min": [
        -8.433699607849121,
        -0.7395079731941223,
        7.020249843597412
      ],
      "type": "VEC3"
    },
    {
      "bufferView": 2,
      "byteOffset": 4412112,
      "componentType": 5126,
      "count": 9932,
      "max": [
        1.0,
        1.0,
        1.0
      ],
      "min": [
        -1.0,
        -1.0,
        -1.0
      ],
      "type": "VEC3"
    },
    {
      "bufferView": 3,
      "byteOffset": 2853776,
      "componentType": 5126,
      "count": 9932,
      "max": [
        1.0,
        1.0,
        1.0,
        1.0
      ],
      "min": [
        -1.0,
        -1.0,
        -1.0,
        -1.0
      ],
      "type": "VEC4"
    },
    {
      "bufferView": 1,
      "byteOffset": 1430976,
      "componentType": 5126,
      "count": 9932,
      "max": [
        0.9965819716453552,
        -0.0024049999192357063
      ],
      "min": [
        0.0014600000577047467,
        -0.9985349774360657
      ],
      "type": "VEC2"
    },
    {
      "bufferView": 0,
      "byteOffset": 1315620,
      "componentType": 5125,
      "count": 17514,
      "type": "SCALAR"
    },
    {
      "bufferView": 2,
      "byteOffset": 4531296,
      "componentType": 5126,
      "count": 1001,
      "max": [
        1.1043800115585327,
        16.912599563598633,
        9.007828712463379
      ],
      "min": [
        -8.437509536743164,
        9.82278060913086,
        7.03548002243042
      ],
      "type": "VEC3"
    },
    {
      "bufferView": 2,
      "byteOffset": 4543308,
      "componentType": 5126,
      "count": 1001,
      "max": [
        1.0,
        1.0,
        1.0
      ],
      "min": [
        -1.0,
        -1.0,
        -1.0
      ],
      "type": "VEC3"
    },
    {
      "bufferView": 3,
      "byteOffset": 3012688,
      "componentType": 5126,
      "count": 1001,
      "max": [
        1.0,
        1.0,
        1.0,
        1.0
      ],
      "min": [
        -1.0,
        -1.0,
        -1.0,
        -1.0
      ],
      "type": "VEC4"
    },
    {
      "bufferView": 1,
      "byteOffset": 1510432,
      "componentType": 5126,
      "count": 1001,
      "max": [
        0.995606005191803,
        -0.0023499999660998583
      ],
      "min": [
        0.0014619999565184116,
        -0.9985349774360657
      ],
      "type": "VEC2"
    },
    {
      "bufferView": 0,
      "byteOffset": 1385676,
      "componentType": 5125,
      "count": 1752,
      "type": "SCALAR"
    },
    {
      "bufferView": 2,
      "byteOffset": 4555320,
      "componentType": 5126,
      "count": 5171,
      "max": [
        1.218500018119812,
        16.13789939880371,
        6.138379096984863
      ],
      "min": [
        -0.49492698907852173,
        11.001399993896484,
        0.9999989867210388
      ],
      "type": "VEC3"
    },
    {
      "bufferView": 2,
      "byteOffset": 4617372,
      "componentType": 5126,
      "count": 5171,
      "max": [
        1.0,
        1.0,
        1.0
      ],
      "min": [
        -1.0,
        -1.0,
        -1.0
      ],
      "type": "VEC3"
    },
    {
      "bufferView": 3,
      "byteOffset": 3028704,
      "componentType": 5126,
      "count": 5171,
      "max": [
        0.9950493574142456,
        1.0,
        1.0,
        1.0
      ],
      "min": [
        -1.0,
        -1.0,
        -1.0,
        -1.0
      ],
      "type": "VEC4"
    },
    {
      "bufferView": 1,
      "byteOffset": 1518440,
      "componentType": 5126,
      "count": 5171,
      "max": [
        0.9946290254592896,
        -0.004738000221550465
      ],
      "min": [
        0.0022700000554323196,
        -0.9965819716453552
      ],
      "type": "VEC2"
    },
    {
      "bufferView": 0,
      "byteOffset": 1392684,
      "componentType": 5125,
      "count": 8004,
      "type": "SCALAR"
    },
    {
      "bufferView": 2,
      "byteOffset": 4679424,
      "componentType": 5126,
      "count": 5197,
      "max": [
        6.13139009475708,
        -3.4827001094818115,
        6.138411045074463
      ],
      "min": [
        4.417960166931152,
        -8.619169235229492,
        1.0000309944152832
      ],
      "type": "VEC3"
    },
    {
      "bufferView": 2,
      "byteOffset": 4741788,
      "componentType": 5126,
      "count": 5197,
      "max": [
        1.0,
        1.0,
        1.0
      ],
      "min": [
        -1.0,
        -1.0,
        -1.0
      ],
      "type": "VEC3"
    },
    {
      "bufferView": 3,
      "byteOffset": 3111440,
      "componentType": 5126,
      "count": 5197,
      "max": [
        1.0,
        1.0,
        1.0,
        1.0
      ],
      "min": [
        -0.9950463175773621,
        -1.0,
        -1.0,
        -1.0
      ],
      "type": "VEC4"
    },
    {
      "bufferView": 1,
      "byteOffset": 1559808,
      "componentType": 5126,
      "count": 5197,
      "max": [
        0.9946290254592896,
        -0.004738000221550465
      ],
      "min": [
        0.0022700000554323196,
        -0.9965819716453552
      ],
      "type": "VEC2"
    },
    {
      "bufferView": 0,
      "byteOffset": 1424700,
      "componentType": 5125,
      "count": 8004,
      "type": "SCALAR"
    },
    {
      "bufferView": 2,
      "byteOffset": 4804152,
      "componentType": 5126,
      "count": 5179,
      "max": [
        14.18809986114502,
        -3.4826700687408447,
        6.138411045074463
      ],
      "min": [
        12.474699974060059,
        -8.619138717651367,
        1.0000309944152832
      ],
      "type": "VEC3"
    },
    {
      "bufferView": 2,
      "byteOffset": 4866300,
      "componentType": 5126,
      "count": 5179,
      "max": [
        1.0,
        1.0,
        1.0
      ],
      "min": [
        -1.0,
        -1.0,
        -1.0
      ],
      "type": "VEC3"
    },
    {
      "bufferView": 3,
      "byteOffset": 3194592,
      "componentType": 5126,
      "count": 5179,
      "max": [
        0.9950448870658875,
        1.0,
        1.0,
        1.0
      ],
      "min": [
        -1.0,
        -1.0,
        -1.0,
        -1.0
      ],
      "type": "VEC4"
    },
    {
      "bufferView": 1,
      "byteOffset": 1601384,
      "componentType": 5126,
      "count": 5179,
      "max": [
        0.9946290254592896,
        -0.004738000221550465
      ],
      "min": [
        0.0022700000554323196,
        -0.9965819716453552
      ],
      "type": "VEC2"
    },
    {
      "bufferView": 0,
      "byteOffset": 1456716,
      "componentType": 5125,
      "count": 8004,
      "type": "SCALAR"
    },
    {
      "bufferView": 2,
      "byteOffset": 4928448,
      "componentType": 5126,
      "count": 5183,
      "max": [
        14.18809986114502,
        16.13789939880371,
        6.138379096984863
      ],
      "min": [
        12.474699974060059,
        11.001399993896484,
        0.9999989867210388
      ],
      "type": "VEC3"
    },
    {
      "bufferView": 2,
      "byteOffset": 4990644,
      "componentType": 5126,
      "count": 5183,
      "max": [
        1.0,
        1.0,
        1.0
      ],
      "min": [
        -1.0,
        -1.0,
        -1.0
      ],
      "type": "VEC3"
    },
    {
      "bufferView": 3,
      "byteOffset": 3277456,
      "componentType": 5126,
      "count": 5183,
      "max": [
        0.9950481057167053,
        1.0,
        1.0,
        1.0
      ],
      "min": [
        -1.0,
        -1.0,
        -1.0,
        -1.0
      ],
      "type": "VEC4"
    },
    {
      "bufferView": 1,
      "byteOffset": 1642816,
      "componentType": 5126,
      "count": 5183,
      "max": [
        0.9946290254592896,
        -0.004738000221550465
      ],
      "min": [
        0.0022700000554323196,
        -0.9965819716453552
      ],
      "type": "VEC2"
    },
    {
      "bufferView": 0,
      "byteOffset": 1488732,
      "componentType": 5125,
      "count": 8004,
      "type": "SCALAR"
    },
    {
      "bufferView": 2,
      "byteOffset": 5052840,
      "componentType": 5126,
      "count": 5152,
      "max": [
        -6.836559772491455,
        16.141799926757813,
        6.13948917388916
      ],
      "min": [
        -8.549989700317383,
        11.00529956817627,
        1.001109004020691
      ],
      "type": "VEC3"
    },
    {
      "bufferView": 2,
      "byteOffset": 5114664,
      "componentType": 5126,
      "count": 5152,
      "max": [
        1.0,
        1.0,
        1.0
      ],
      "min": [
        -1.0,
        -1.0,
        -1.0
      ],
      "type": "VEC3"
    },
    {
      "bufferView": 3,
      "byteOffset": 3360384,
      "componentType": 5126,
      "count": 5152,
      "max": [
        1.0,
        1.0,
        1.0,
        1.0
      ],
      "min": [
        -0.9950513243675232,
        -1.0,
        -0.9999999403953552,
        -1.0
      ],
      "type": "VEC4"
    },
    {
      "bufferView": 1,
      "byteOffset": 1684280,
      "componentType": 5126,
      "count": 5152,
      "max": [
        0.9946290254592896,
        -0.004738000221550465
      ],
      "min": [
        0.0022700000554323196,
        -0.9965819716453552
      ],
      "type": "VEC2"
    },
    {
      "bufferView": 0,
      "byteOffset": 1520748,
      "componentType": 5125,
      "count": 8004,
      "type": "SCALAR"
    },
    {
      "bufferView": 2,
      "byteOffset": 5176488,
      "componentType": 5126,
      "count": 5167,
      "max": [
        -6.836550235748291,
        10.466400146484375,
        6.139490127563477
      ],
      "min": [
        -8.549989700317383,
        5.329899787902832,
        1.0011099576950073
      ],
      "type": "VEC3"
    },
    {
      "bufferView": 2,
      "byteOffset": 5238492,
      "componentType": 5126,
      "count": 5167,
      "max": [
        1.0,
        1.0,
        1.0
      ],
      "min": [
        -1.0,
        -1.0,
        -1.0
      ],
      "type": "VEC3"
    },
    {
      "bufferView": 3,
      "byteOffset": 3442816,
      "componentType": 5126,
      "count": 5167,
      "max": [
        1.0,
        1.0,
        1.0,
        1.0
      ],
      "min": [
        -0.9950470924377441,
        -1.0,
        -1.0,
        -1.0
      ],
      "type": "VEC4"
    },
    {
      "bufferView": 1,
      "byteOffset": 1725496,
      "componentType": 5126,
      "count": 5167,
      "max": [
        0.9946290254592896,
        -0.004738000221550465
      ],
      "min": [
        0.0022700000554323196,
        -0.9965819716453552
      ],
      "type": "VEC2"
    },
    {
      "bufferView": 0,
      "byteOffset": 1552764,
      "componentType": 5125,
      "count": 8004,
      "type": "SCALAR"
    },
    {
      "bufferView": 2,
      "byteOffset": 5300496,
      "componentType": 5126,
      "count": 5162,
      "max": [
        1.218500018119812,
        10.462499618530273,
        6.138379096984863
      ],
      "min": [
        -0.49492698907852173,
        5.325991153717041,
        0.9999989867210388
      ],
      "type": "VEC3"
    },
    {
      "bufferView": 2,
      "byteOffset": 5362440,
      "componentType": 5126,
      "count": 5162,
      "max": [
        1.0,
        1.0,
        1.0
      ],
      "min": [
        -1.0,
        -1.0,
        -1.0
      ],
      "type": "VEC3"
    },
    {
      "bufferView": 3,
      "byteOffset": 3525488,
      "componentType": 5126,
      "count": 5162,
      "max": [
        0.995046079158783,
        1.0,
        1.0,
        1.0
      ],
      "min": [
        -1.0,
        -1.0,
        -1.0,
        -1.0
      ],
      "type": "VEC4"
    },
    {
      "bufferView": 1,
      "byteOffset": 1766832,
      "componentType": 5126,
      "count": 5162,
      "max": [
        0.9946290254592896,
        -0.004738000221550465
      ],
      "min": [
        0.0022700000554323196,
        -0.9965819716453552
      ],
      "type": "VEC2"
    },
    {
      "bufferView": 0,
      "byteOffset": 1584780,
      "componentType": 5125,
      "count": 8004,
      "type": "SCALAR"
    },
    {
      "bufferView": 2,
      "byteOffset": 5424384,
      "componentType": 5126,
      "count": 5208,
      "max": [
        -6.838220119476318,
        -3.4827001094818115,
        6.138411045074463
      ],
      "min": [
        -8.551650047302246,
        -8.619169235229492,
        1.0000309944152832
      ],
      "type": "VEC3"
    },
    {
      "bufferView": 2,
      "byteOffset": 5486880,
      "componentType": 5126,
      "count": 5208,
      "max": [
        1.0,
        1.0,
        1.0
      ],
      "min": [
        -1.0,
        -1.0,
        -1.0
      ],
      "type": "VEC3"
    },
    {
      "bufferView": 3,
      "byteOffset": 3608080,
      "componentType": 5126,
      "count": 5208,
      "max": [
        1.0,
        1.0,
        1.0,
        1.0
      ],
      "min": [
        -0.9950463175773621,
        -1.0,
        -1.0,
        -1.0
      ],
      "type": "VEC4"
    },
    {
      "bufferView": 1,
      "byteOffset": 1808128,
      "componentType": 5126,
      "count": 5208,
      "max": [
        0.9946290254592896,
        -0.004738000221550465
      ],
      "min": [
        0.0022700000554323196,
        -0.9965819716453552
      ],
      "type": "VEC2"
    },
    {
      "bufferView": 0,
      "byteOffset": 1616796,
      "componentType": 5125,
      "count": 8004,
      "type": "SCALAR"
    },
    {
      "bufferView": 2,
      "byteOffset": 5549376,
      "componentType": 5126,
      "count": 5155,
      "max": [
        1.218500018119812,
        -3.4826700687408447,
        6.138411045074463
      ],
      "min": [
        -0.49492698907852173,
        -8.619138717651367,
        1.0000309944152832
      ],
      "type": "VEC3"
    },
    {
      "bufferView": 2,
      "byteOffset": 5611236,
      "componentType": 5126,
      "count": 5155,
      "max": [
        1.0,
        1.0,
        1.0
      ],
      "min": [
        -1.0,
        -1.0,
        -1.0
      ],
      "type": "VEC3"
    },
    {
      "bufferView": 3,
      "byteOffset": 3691408,
      "componentType": 5126,
      "count": 5155,
      "max": [
        0.995046079158783,
        1.0,
        1.0,
        1.0
      ],
      "min": [
        -1.0,
        -1.0,
        -1.0,
        -1.0
      ],
      "type": "VEC4"
    },
    {
      "bufferView": 1,
      "byteOffset": 1849792,
      "componentType": 5126,
      "count": 5155,
      "max": [
        0.9946290254592896,
        -0.004738000221550465
      ],
      "min": [
        0.0022700000554323196,
        -0.9965819716453552
      ],
      "type": "VEC2"
    },
    {
      "bufferView": 0,
      "byteOffset": 1648812,
      "componentType": 5125,
      "count": 8004,
      "type": "SCALAR"
    },
    {
      "bufferView": 2,
      "byteOffset": 5673096,
      "componentType": 5126,
      "count": 5147,
      "max": [
        6.133059978485107,
        16.141799926757813,
        6.13948917388916
      ],
      "min": [
        4.419620037078857,
        11.00529956817627,
        1.001109004020691
      ],
      "type": "VEC3"
    },
    {
      "bufferView": 2,
      "byteOffset": 5734860,
      "componentType": 5126,
      "count": 5147,
      "max": [
        1.0,
        1.0,
        1.0
      ],
      "min": [
        -1.0,
        -1.0,
        -1.0
      ],
      "type": "VEC3"
    },
    {
      "bufferView": 3,
      "byteOffset": 3773888,
      "componentType": 5126,
      "count": 5147,
      "max": [
        1.0,
        1.0,
        1.0,
        1.0
      ],
      "min": [
        -0.9950512647628784,
        -1.0,
        -0.9999999403953552,
        -1.0
      ],
      "type": "VEC4"
    },
    {
      "bufferView": 1,
      "byteOffset": 1891032,
      "componentType": 5126,
      "count": 5147,
      "max": [
        0.9946290254592896,
        -0.004738000221550465
      ],
      "min": [
        0.0022700000554323196,
        -0.9965819716453552
      ],
      "type": "VEC2"
    },
    {
      "bufferView": 0,
      "byteOffset": 1680828,
      "componentType": 5125,
      "count": 8004,
      "type": "SCALAR"
    },
    {
      "bufferView": 2,
      "byteOffset": 5796624,
      "componentType": 5126,
      "count": 5187,
      "max": [
        6.133059978485107,
        10.466400146484375,
        6.139490127563477
      ],
      "min": [
        4.419620037078857,
        5.329899787902832,
        1.0011099576950073
      ],
      "type": "VEC3"
    },
    {
      "bufferView": 2,
      "byteOffset": 5858868,
      "componentType": 5126,
      "count": 5187,
      "max": [
        1.0,
        1.0,
        1.0
      ],
      "min": [
        -1.0,
        -1.0,
        -1.0
      ],
      "type": "VEC3"
    },
    {
      "bufferView": 3,
      "byteOffset": 3856240,
      "componentType": 5126,
      "count": 5187,
      "max": [
        1.0,
        1.0,
        1.0,
        1.0
      ],
      "min": [
        -0.9950470328330994,
        -1.0,
        -1.0,
        -1.0
      ],
      "type": "VEC4"
    },
    {
      "bufferView": 1,
      "byteOffset": 1932208,
      "componentType": 5126,
      "count": 5187,
      "max": [
        0.9946290254592896,
        -0.004738000221550465
      ],
      "min": [
        0.0022700000554323196,
        -0.9965819716453552
      ],
      "type": "VEC2"
    },
    {
      "bufferView": 0,
      "byteOffset": 1712844,
      "componentType": 5125,
      "count": 8004,
      "type": "SCALAR"
    },
    {
      "bufferView": 2,
      "byteOffset": 5921112,
      "componentType": 5126,
      "count": 5165,
      "max": [
        14.18809986114502,
        10.462499618530273,
        6.138379096984863
      ],
      "min": [
        12.474699974060059,
        5.325991153717041,
        0.9999989867210388
      ],
      "type": "VEC3"
    },
    {
      "bufferView": 2,
      "byteOffset": 5983092,
      "componentType": 5126,
      "count": 5165,
      "max": [
        1.0,
        1.0,
        1.0
      ],
      "min": [
        -1.0,
        -1.0,
        -1.0
      ],
      "type": "VEC3"
    },
    {
      "bufferView": 3,
      "byteOffset": 3939232,
      "componentType": 5126,
      "count": 5165,
      "max": [
        0.9950448870658875,
        1.0,
        1.0,
        1.0
      ],
      "min": [
        -1.0,
        -1.0,
        -1.0,
        -1.0
      ],
      "type": "VEC4"
    },
    {
      "bufferView": 1,
      "byteOffset": 1973704,
      "componentType": 5126,
      "count": 5165,
      "max": [
        0.9946290254592896,
        -0.004738000221550465
      ],
      "min": [
        0.0022700000554323196,
        -0.9965819716453552
      ],
      "type": "VEC2"
    },
    {
      "bufferView": 0,
      "byteOffset": 1744860,
      "componentType": 5125,
      "count": 8004,
      "type": "SCALAR"
    }
  ],
  "asset": {
    "extras": {
      "author": "thientrung2004pr (https://sketchfab.com/U.SSCIFI)",
      "license": "CC-BY-4.0 (http://creativecommons.org/licenses/by/4.0/)",
      "source": "https://sketchfab.com/3d-models/battlefield-6-oshkosh-fmtv-m1083-a8a91f91ef7a468faa7080f912c83ded",
      "title": "Battlefield 6 - Oshkosh FMTV M1083"
    },
    "generator": "Sketchfab-17.3.0",
    "version": "2.0"
  },
  "bufferViews": [
    {
      "buffer": 0,
      "byteLength": 1776876,
      "name": "floatBufferViews",
      "target": 34963
    },
    {
      "buffer": 0,
      "byteLength": 2015024,
      "byteOffset": 1776876,
      "byteStride": 8,
      "name": "floatBufferViews",
      "target": 34962
    },
    {
      "buffer": 0,
      "byteLength": 6045072,
      "byteOffset": 3791900,
      "byteStride": 12,
      "name": "floatBufferViews",
      "target": 34962
    },
    {
      "buffer": 0,
      "byteLength": 4021872,
      "byteOffset": 9836972,
      "byteStride": 16,
      "name": "floatBufferViews",
      "target": 34962
    }
  ],
  "buffers": [
    {
      "byteLength": 13858844,
      "uri": "oskosh-truck.bin"
    }
  ],
  "extensionsRequired": [
    "KHR_materials_pbrSpecularGlossiness"
  ],
  "extensionsUsed": [
    "KHR_materials_pbrSpecularGlossiness"
  ],
  "images": [
    {
      "uri": "textures/Bars1Mtl.001_diffuse.png"
    },
    {
      "uri": "textures/Bars1Mtl.001_specularGlossiness.png"
    },
    {
      "uri": "textures/Bars1Mtl.001_normal.png"
    },
    {
      "uri": "textures/Cab14Mtl.001_diffuse.png"
    },
    {
      "uri": "textures/Cab14Mtl.001_specularGlossiness.png"
    },
    {
      "uri": "textures/Cab14Mtl.001_normal.png"
    },
    {
      "uri": "textures/Cab21Mtl.001_diffuse.png"
    },
    {
      "uri": "textures/Chasis21Mtl.001_diffuse.png"
    },
    {
      "uri": "textures/Chasis21Mtl.001_specularGlossiness.png"
    },
    {
      "uri": "textures/Chasis21Mtl.001_normal.png"
    },
    {
      "uri": "textures/Decals21Mtl.001_diffuse.png"
    },
    {
      "uri": "textures/Glass1Mtl.001_diffuse.png"
    },
    {
      "uri": "textures/Glass1Mtl.001_specularGlossiness.png"
    },
    {
      "uri": "textures/Glass1Mtl.001_normal.png"
    },
    {
      "uri": "textures/GlassLights1Mtl.001_diffuse.png"
    },
    {
      "uri": "textures/GlassLights1Mtl.001_specularGlossiness.png"
    },
    {
      "uri": "textures/HazardLights2Mtl.001_diffuse.png"
    },
    {
      "uri": "textures/HazardLights2Mtl.001_specularGlossiness.png"
    },
    {
      "uri": "textures/HazardLights2Mtl.001_normal.png"
    },
    {
      "uri": "textures/InteriorFrame1Mtl.001_diffuse.png"
    },
    {
      "uri": "textures/InteriorFrame1Mtl.001_specularGlossiness.png"
    },
    {
      "uri": "textures/InteriorFrame1Mtl.001_normal.png"
    },
    {
      "uri": "textures/SteeringWheel1Mtl.001_diffuse.png"
    },
    {
      "uri": "textures/SteeringWheel1Mtl.001_specularGlossiness.png"
    },
    {
      "uri": "textures/SteeringWheel1Mtl.001_normal.png"
    },
    {
      "uri": "textures/Tailgate1Mtl.001_diffuse.png"
    },
    {
      "uri": "textures/Wheel1Mtl.001_diffuse.png"
    },
    {
      "uri": "textures/Wheel1Mtl.001_specularGlossiness.png"
    },
    {
      "uri": "textures/Wheel1Mtl.001_normal.png"
    }
  ],
  "materials": [
    {
      "doubleSided": true,
      "extensions": {
        "KHR_materials_pbrSpecularGlossiness": {
          "diffuseFactor": [
            1.0,
            1.0,
            1.0,
            1.0
          ],
          "diffuseTexture": {
            "index": 0
          },
          "glossinessFactor": 0.0,
          "specularFactor": [
            0.05,
            0.05,
            0.05
          ],
          "specularGlossinessTexture": {
            "index": 1
          }
        }
      },
      "name": "Bars1Mtl.001",
      "normalTexture": {
        "index": 2
      }
    },
    {
      "alphaMode": "BLEND",
      "doubleSided": true,
      "extensions": {
        "KHR_materials_pbrSpecularGlossiness": {
          "diffuseFactor": [
            1.0,
            1.0,
            1.0,
            1.0
          ],
          "diffuseTexture": {
            "index": 3
          },
          "glossinessFactor": 0.0,
          "specularFactor": [
            0.05,
            0.05,
            0.05
          ],
          "specularGlossinessTexture": {
            "index": 4
          }
        }
      },
      "name": "Cab14Mtl.001",
      "normalTexture": {
        "index": 5
      }
    },
    {
      "doubleSided": true,
      "extensions": {
        "KHR_materials_pbrSpecularGlossiness": {
          "diffuseFactor": [
            1.0,
            1.0,
            1.0,
            1.0
          ],
          "diffuseTexture": {
            "index": 6
          },
          "glossinessFactor": 0.0,
          "specularFactor": [
            0.05,
            0.05,
            0.05
          ],
          "specularGlossinessTexture": {
            "index": 4
          }
        }
      },
      "name": "Cab21Mtl.001",
      "normalTexture": {
        "index": 5
      }
    },
    {
      "doubleSided": true,
      "extensions": {
        "KHR_materials_pbrSpecularGlossiness": {
          "diffuseFactor": [
            1.0,
            1.0,
            1.0,
            1.0
          ],
          "diffuseTexture": {
            "index": 7
          },
          "glossinessFactor": 0.0,
          "specularFactor": [
            0.05,
            0.05,
            0.05
          ],
          "specularGlossinessTexture": {
            "index": 8
          }
        }
      },
      "name": "Chasis21Mtl.001",
      "normalTexture": {
        "index": 9
      }
    },
    {
      "alphaMode": "BLEND",
      "doubleSided": true,
      "extensions": {
        "KHR_materials_pbrSpecularGlossiness": {
          "diffuseFactor": [
            1.0,
            1.0,
            1.0,
            1.0
          ],
          "diffuseTexture": {
            "index": 10
          },
          "glossinessFactor": 0.01293973260098444,
          "specularFactor": [
            0.05,
            0.05,
            0.05
          ]
        }
      },
      "name": "Decals21Mtl.001"
    },
    {
      "alphaMode": "BLEND",
      "doubleSided": true,
      "extensions": {
        "KHR_materials_pbrSpecularGlossiness": {
          "diffuseFactor": [
            1.0,
            1.0,
            1.0,
            1.0
          ],
          "diffuseTexture": {
            "index": 3
          },
          "glossinessFactor": 0.0,
          "specularFactor": [
            0.05,
            0.05,
            0.05
          ],
          "specularGlossinessTexture": {
            "index": 4
          }
        }
      },
      "name": "FrTurningLights1Mtl.001",
      "normalTexture": {
        "index": 5
      }
    },
    {
      "alphaMode": "BLEND",
      "doubleSided": true,
      "extensions": {
        "KHR_materials_pbrSpecularGlossiness": {
          "diffuseFactor": [
            1.0,
            1.0,
            1.0,
            1.0
          ],
          "diffuseTexture": {
            "index": 11
          },
          "glossinessFactor": 0.0,
          "specularFactor": [
            0.05,
            0.05,
            0.05
          ],
          "specularGlossinessTexture": {
            "index": 12
          }
        }
      },
      "name": "Glass1Mtl.001",
      "normalTexture": {
        "index": 13
      }
    },
    {
      "alphaMode": "BLEND",
      "doubleSided": true,
      "extensions": {
        "KHR_materials_pbrSpecularGlossiness": {
          "diffuseFactor": [
            1.0,
            1.0,
            1.0,
            1.0
          ],
          "diffuseTexture": {
            "index": 14
          },
          "glossinessFactor": 0.0,
          "specularFactor": [
            0.05,
            0.05,
            0.05
          ],
          "specularGlossinessTexture": {
            "index": 15
          }
        }
      },
      "name": "GlassLights1Mtl.001",
      "normalTexture": {
        "index": 13
      }
    },
    {
      "alphaMode": "BLEND",
      "doubleSided": true,
      "extensions": {
        "KHR_materials_pbrSpecularGlossiness": {
          "diffuseFactor": [
            1.0,
            1.0,
            1.0,
            1.0
          ],
          "diffuseTexture": {
            "index": 16
          },
          "glossinessFactor": 0.0,
          "specularFactor": [
            0.05,
            0.05,
            0.05
          ],
          "specularGlossinessTexture": {
            "index": 17
          }
        }
      },
      "name": "HazardLights2Mtl.001",
      "normalTexture": {
        "index": 18
      }
    },
    {
      "alphaMode": "BLEND",
      "doubleSided": true,
      "extensions": {
        "KHR_materials_pbrSpecularGlossiness": {
          "diffuseFactor": [
            1.0,
            1.0,
            1.0,
            1.0
          ],
          "diffuseTexture": {
            "index": 3
          },
          "glossinessFactor": 0.0,
          "specularFactor": [
            0.05,
            0.05,
            0.05
          ],
          "specularGlossinessTexture": {
            "index": 4
          }
        }
      },
      "name": "Headlights1Mtl.001",
      "normalTexture": {
        "index": 5
      }
    },
    {
      "alphaMode": "BLEND",
      "doubleSided": true,
      "extensions": {
        "KHR_materials_pbrSpecularGlossiness": {
          "diffuseFactor": [
            1.0,
            1.0,
            1.0,
            1.0
          ],
          "diffuseTexture": {
            "index": 19
          },
          "glossinessFactor": 0.0,
          "specularFactor": [
            0.05,
            0.05,
            0.05
          ],
          "specularGlossinessTexture": {
            "index": 20
          }
        }
      },
      "name": "InteriorFrame1Mtl.001",
      "normalTexture": {
        "index": 21
      }
    },
    {
      "alphaMode": "BLEND",
      "doubleSided": true,
      "extensions": {
        "KHR_materials_pbrSpecularGlossiness": {
          "diffuseFactor": [
            1.0,
            1.0,
            1.0,
            1.0
          ],
          "diffuseTexture": {
            "index": 19
          },
          "glossinessFactor": 0.0,
          "specularFactor": [
            0.05,
            0.05,
            0.05
          ],
          "specularGlossinessTexture": {
            "index": 20
          }
        }
      },
      "name": "InteriorFrame4Mtl.001",
      "normalTexture": {
        "index": 21
      }
    },
    {
      "alphaMode": "BLEND",
      "doubleSided": true,
      "extensions": {
        "KHR_materials_pbrSpecularGlossiness": {
          "diffuseFactor": [
            1.0,
            1.0,
            1.0,
            1.0
          ],
          "diffuseTexture": {
            "index": 16
          },
          "glossinessFactor": 0.0,
          "specularFactor": [
            0.05,
            0.05,
            0.05
          ],
          "specularGlossinessTexture": {
            "index": 17
          }
        }
      },
      "name": "RlTurningLight1Mtl.001",
      "normalTexture": {
        "index": 18
      }
    },
    {
      "alphaMode": "BLEND",
      "doubleSided": true,
      "extensions": {
        "KHR_materials_pbrSpecularGlossiness": {
          "diffuseFactor": [
            1.0,
            1.0,
            1.0,
            1.0
          ],
          "diffuseTexture": {
            "index": 22
          },
          "glossinessFactor": 0.0,
          "specularFactor": [
            0.05,
            0.05,
            0.05
          ],
          "specularGlossinessTexture": {
            "index": 23
          }
        }
      },
      "name": "SteeringWheel1Mtl.001",
      "normalTexture": {
        "index": 24
      }
    },
    {
      "doubleSided": true,
      "extensions": {
        "KHR_materials_pbrSpecularGlossiness": {
          "diffuseFactor": [
            1.0,
            1.0,
            1.0,
            1.0
          ],
          "diffuseTexture": {
            "index": 25
          },
          "glossinessFactor": 0.0,
          "specularFactor": [
            0.05,
            0.05,
            0.05
          ],
          "specularGlossinessTexture": {
            "index": 17
          }
        }
      },
      "name": "Tailgate1Mtl.001",
      "normalTexture": {
        "index": 18
      }
    },
    {
      "doubleSided": true,
      "extensions": {
        "KHR_materials_pbrSpecularGlossiness": {
          "diffuseFactor": [
            1.0,
            1.0,
            1.0,
            1.0
          ],
          "diffuseTexture": {
            "index": 26
          },
          "glossinessFactor": 0.0,
          "specularFactor": [
            0.05,
            0.05,
            0.05
          ],
          "specularGlossinessTexture": {
            "index": 27
          }
        }
      },
      "name": "Wheel1Mtl.001",
      "normalTexture": {
        "index": 28
      }
    }
  ],
  "meshes": [
    {
      "name": "Object_0",
      "primitives": [
        {
          "attributes": {
            "NORMAL": 1,
            "POSITION": 0,
            "TANGENT": 2,
            "TEXCOORD_0": 3
          },
          "indices": 4,
          "material": 0,
          "mode": 4
        }
      ]
    },
    {
      "name": "Object_1",
      "primitives": [
        {
          "attributes": {
            "NORMAL": 6,
            "POSITION": 5,
            "TANGENT": 7,
            "TEXCOORD_0": 8
          },
          "indices": 9,
          "material": 0,
          "mode": 4
        }
      ]
    },
    {
      "name": "Object_2",
      "primitives": [
        {
          "attributes": {
            "NORMAL": 11,
            "POSITION": 10,
            "TANGENT": 12,
            "TEXCOORD_0": 13
          },
          "indices": 14,
          "material": 1,
          "mode": 4
        }
      ]
    },
    {
      "name": "Object_3",
      "primitives": [
        {
          "attributes": {
            "NORMAL": 16,
            "POSITION": 15,
            "TANGENT": 17,
            "TEXCOORD_0": 18
          },
          "indices": 19,
          "material": 2,
          "mode": 4
        }
      ]
    },
    {
      "name": "Object_4",
      "primitives": [
        {
          "attributes": {
            "NORMAL": 21,
            "POSITION": 20,
            "TANGENT": 22,
            "TEXCOORD_0": 23
          },
          "indices": 24,
          "material": 2,
          "mode": 4
        }
      ]
    },
    {
      "name": "Object_5",
      "primitives": [
        {
          "attributes": {
            "NORMAL": 26,
            "POSITION": 25,
            "TANGENT": 27,
            "TEXCOORD_0": 28
          },
          "indices": 29,
          "material": 2,
          "mode": 4
        }
      ]
    },
    {
      "name": "Object_6",
      "primitives": [
        {
          "attributes": {
            "NORMAL": 31,
            "POSITION": 30,
            "TANGENT": 32,
            "TEXCOORD_0": 33
          },
          "indices": 34,
          "material": 2,
          "mode": 4
        }
      ]
    },
    {
      "name": "Object_7",
      "primitives": [
        {
          "attributes": {
            "NORMAL": 36,
            "POSITION": 35,
            "TANGENT": 37,
            "TEXCOORD_0": 38
          },
          "indices": 39,
          "material": 2,
          "mode": 4
        }
      ]
    },
    {
      "name": "Object_8",
      "primitives": [
        {
          "attributes": {
            "NORMAL": 41,
            "POSITION": 40,
            "TANGENT": 42,
            "TEXCOORD_0": 43
          },
          "indices": 44,
          "material": 3,
          "mode": 4
        }
      ]
    },
    {
      "name": "Object_9",
      "primitives": [
        {
          "attributes": {
            "NORMAL": 46,
            "POSITION": 45,
            "TANGENT": 47,
            "TEXCOORD_0": 48
          },
          "indices": 49,
          "material": 3,
          "mode": 4
        }
      ]
    },
    {
      "name": "Object_10",
      "primitives": [
        {
          "attributes": {
            "NORMAL": 51,
            "POSITION": 50,
            "TANGENT": 52,
            "TEXCOORD_0": 53
          },
          "indices": 54,
          "material": 3,
          "mode": 4
        }
      ]
    },
    {
      "name": "Object_11",
      "primitives": [
        {
          "attributes": {
            "NORMAL": 56,
            "POSITION": 55,
            "TANGENT": 57,
            "TEXCOORD_0": 58
          },
          "indices": 59,
          "material": 3,
          "mode": 4
        }
      ]
    },
    {
      "name": "Object_12",
      "primitives": [
        {
          "attributes": {
            "NORMAL": 61,
            "POSITION": 60,
            "TANGENT": 62,
            "TEXCOORD_0": 63
          },
          "indices": 64,
          "material": 3,
          "mode": 4
        }
      ]
    },
    {
      "name": "Object_13",
      "primitives": [
        {
          "attributes": {
            "NORMAL": 66,
            "POSITION": 65,
            "TANGENT": 67,
            "TEXCOORD_0": 68
          },
          "indices": 69,
          "material": 3,
          "mode": 4
        }
      ]
    },
    {
      "name": "Object_14",
      "primitives": [
        {
          "attributes": {
            "NORMAL": 71,
            "POSITION": 70,
            "TEXCOORD_0": 72
          },
          "indices": 73,
          "material": 4,
          "mode": 4
        }
      ]
    },
    {
      "name": "Object_15",
      "primitives": [
        {
          "attributes": {
            "NORMAL": 75,
            "POSITION": 74,
            "TANGENT": 76,
            "TEXCOORD_0": 77
          },
          "indices": 78,
          "material": 5,
          "mode": 4
        }
      ]
    },
    {
      "name": "Object_16",
      "primitives": [
        {
          "attributes": {
            "NORMAL": 80,
            "POSITION": 79,
            "TANGENT": 81,
            "TEXCOORD_0": 82
          },
          "indices": 83,
          "material": 6,
          "mode": 4
        }
      ]
    },
    {
      "name": "Object_17",
      "primitives": [
        {
          "attributes": {
            "NORMAL": 85,
            "POSITION": 84,
            "TANGENT": 86,
            "TEXCOORD_0": 87
          },
          "indices": 88,
          "material": 7,
          "mode": 4
        }
      ]
    },
    {
      "name": "Object_18",
      "primitives": [
        {
          "attributes": {
            "NORMAL": 90,
            "POSITION": 89,
            "TANGENT": 91,
            "TEXCOORD_0": 92
          },
          "indices": 93,
          "material": 8,
          "mode": 4
        }
      ]
    },
    {
      "name": "Object_19",
      "primitives": [
        {
          "attributes": {
            "NORMAL": 95,
            "POSITION": 94,
            "TANGENT": 96,
            "TEXCOORD_0": 97
          },
          "indices": 98,
          "material": 9,
          "mode": 4
        }
      ]
    },
    {
      "name": "Object_20",
      "primitives": [
        {
          "attributes": {
            "NORMAL": 100,
            "POSITION": 99,
            "TANGENT": 101,
            "TEXCOORD_0": 102
          },
          "indices": 103,
          "material": 10,
          "mode": 4
        }
      ]
    },
    {
      "name": "Object_21",
      "primitives": [
        {
          "attributes": {
            "NORMAL": 105,
            "POSITION": 104,
            "TANGENT": 106,
            "TEXCOORD_0": 107
          },
          "indices": 108,
          "material": 10,
          "mode": 4
        }
      ]
    },
    {
      "name": "Object_22",
      "primitives": [
        {
          "attributes": {
            "NORMAL": 110,
            "POSITION": 109,
            "TANGENT": 111,
            "TEXCOORD_0": 112
          },
          "indices": 113,
          "material": 10,
          "mode": 4
        }
      ]
    },
    {
      "name": "Object_23",
      "primitives": [
        {
          "attributes": {
            "NORMAL": 115,
            "POSITION": 114,
            "TANGENT": 116,
            "TEXCOORD_0": 117
          },
          "indices": 118,
          "material": 10,
          "mode": 4
        }
      ]
    },
    {
      "name": "Object_24",
      "primitives": [
        {
          "attributes": {
            "NORMAL": 120,
            "POSITION": 119,
            "TANGENT": 121,
            "TEXCOORD_0": 122
          },
          "indices": 123,
          "material": 11,
          "mode": 4
        }
      ]
    },
    {
      "name": "Object_25",
      "primitives": [
        {
          "attributes": {
            "NORMAL": 125,
            "POSITION": 124,
            "TANGENT": 126,
            "TEXCOORD_0": 127
          },
          "indices": 128,
          "material": 12,
          "mode": 4
        }
      ]
    },
    {
      "name": "Object_26",
      "primitives": [
        {
          "attributes": {
            "NORMAL": 130,
            "POSITION": 129,
            "TANGENT": 131,
            "TEXCOORD_0": 132
          },
          "indices": 133,
          "material": 13,
          "mode": 4
        }
      ]
    },
    {
      "name": "Object_27",
      "primitives": [
        {
          "attributes": {
            "NORMAL": 135,
            "POSITION": 134,
            "TANGENT": 136,
            "TEXCOORD_0": 137
          },
          "indices": 138,
          "material": 13,
          "mode": 4
        }
      ]
    },
    {
      "name": "Object_28",
      "primitives": [
        {
          "attributes": {
            "NORMAL": 140,
            "POSITION": 139,
            "TANGENT": 141,
            "TEXCOORD_0": 142
          },
          "indices": 143,
          "material": 13,
          "mode": 4
        }
      ]
    },
    {
      "name": "Object_29",
      "primitives": [
        {
          "attributes": {
            "NORMAL": 145,
            "POSITION": 144,
            "TANGENT": 146,
            "TEXCOORD_0": 147
          },
          "indices": 148,
          "material": 14,
          "mode": 4
        }
      ]
    },
    {
      "name": "Object_30",
      "primitives": [
        {
          "attributes": {
            "NORMAL": 150,
            "POSITION": 149,
            "TANGENT": 151,
            "TEXCOORD_0": 152
          },
          "indices": 153,
          "material": 14,
          "mode": 4
        }
      ]
    },
    {
      "name": "Object_31",
      "primitives": [
        {
          "attributes": {
            "NORMAL": 155,
            "POSITION": 154,
            "TANGENT": 156,
            "TEXCOORD_0": 157
          },
          "indices": 158,
          "material": 14,
          "mode": 4
        }
      ]
    },
    {
      "name": "Object_32",
      "primitives": [
        {
          "attributes": {
            "NORMAL": 160,
            "POSITION": 159,
            "TANGENT": 161,
            "TEXCOORD_0": 162
          },
          "indices": 163,
          "material": 15,
          "mode": 4
        }
      ]
    },
    {
      "name": "Object_33",
      "primitives": [
        {
          "attributes": {
            "NORMAL": 165,
            "POSITION": 164,
            "TANGENT": 166,
            "TEXCOORD_0": 167
          },
          "indices": 168,
          "material": 15,
          "mode": 4
        }
      ]
    },
    {
      "name": "Object_34",
      "primitives": [
        {
          "attributes": {
            "NORMAL": 170,
            "POSITION": 169,
            "TANGENT": 171,
            "TEXCOORD_0": 172
          },
          "indices": 173,
          "material": 15,
          "mode": 4
        }
      ]
    },
    {
      "name": "Object_35",
      "primitives": [
        {
          "attributes": {
            "NORMAL": 175,
            "POSITION": 174,
            "TANGENT": 176,
            "TEXCOORD_0": 177
          },
          "indices": 178,
          "material": 15,
          "mode": 4
        }
      ]
    },
    {
      "name": "Object_36",
      "primitives": [
        {
          "attributes": {
            "NORMAL": 180,
            "POSITION": 179,
            "TANGENT": 181,
            "TEXCOORD_0": 182
          },
          "indices": 183,
          "material": 15,
          "mode": 4
        }
      ]
    },
    {
      "name": "Object_37",
      "primitives": [
        {
          "attributes": {
            "NORMAL": 185,
            "POSITION": 184,
            "TANGENT": 186,
            "TEXCOORD_0": 187
          },
          "indices": 188,
          "material": 15,
          "mode": 4
        }
      ]
    },
    {
      "name": "Object_38",
      "primitives": [
        {
          "attributes": {
            "NORMAL": 190,
            "POSITION": 189,
            "TANGENT": 191,
            "TEXCOORD_0": 192
          },
          "indices": 193,
          "material": 15,
          "mode": 4
        }
      ]
    },
    {
      "name": "Object_39",
      "primitives": [
        {
          "attributes": {
            "NORMAL": 195,
            "POSITION": 194,
            "TANGENT": 196,
            "TEXCOORD_0": 197
          },
          "indices": 198,
          "material": 15,
          "mode": 4
        }
      ]
    },
    {
      "name": "Object_40",
      "primitives": [
        {
          "attributes": {
            "NORMAL": 200,
            "POSITION": 199,
            "TANGENT": 201,
            "TEXCOORD_0": 202
          },
          "indices": 203,
          "material": 15,
          "mode": 4
        }
      ]
    },
    {
      "name": "Object_41",
      "primitives": [
        {
          "attributes": {
            "NORMAL": 205,
            "POSITION": 204,
            "TANGENT": 206,
            "TEXCOORD_0": 207
          },
          "indices": 208,
          "material": 15,
          "mode": 4
        }
      ]
    },
    {
      "name": "Object_42",
      "primitives": [
        {
          "attributes": {
            "NORMAL": 210,
            "POSITION": 209,
            "TANGENT": 211,
            "TEXCOORD_0": 212
          },
          "indices": 213,
          "material": 15,
          "mode": 4
        }
      ]
    },
    {
      "name": "Object_43",
      "primitives": [
        {
          "attributes": {
            "NORMAL": 215,
            "POSITION": 214,
            "TANGENT": 216,
            "TEXCOORD_0": 217
          },
          "indices": 218,
          "material": 15,
          "mode": 4
        }
      ]
    }
  ],
  "nodes": [
    {
      "children": [
        1
      ],
      "matrix": [
        1.0,
        0.0,
        0.0,
        0.0,
        0.0,
        2.220446049250313e-16,
        -1.0,
        0.0,
        0.0,
        1.0,
        2.220446049250313e-16,
        0.0,
        0.0,
        0.0,
        0.0,
        1.0
      ],
      "name": "Sketchfab_model"
    },
    {
      "children": [
        2,
        3,
        4,
        5,
        6,
        7,
        8,
        9,
        10,
        11,
        12,
        13,
        14,
        15,
        16,
        17,
        18,
        19,
        20,
        21,
        22,
        23,
        24,
        25,
        26,
        27,
        28,
        29,
        30,
        31,
        32,
        33,
        34,
        35,
        36,
        37,
        38,
        39,
        40,
        41,
        42,
        43,
        44,
        45
      ],
      "name": "Oshkosh FMTV M1083.obj.cleaner.materialmerger.gles"
    },
    {
      "mesh": 0,
      "name": "Object_2"
    },
    {
      "mesh": 1,
      "name": "Object_3"
    },
    {
      "mesh": 2,
      "name": "Object_4"
    },
    {
      "mesh": 3,
      "name": "Object_5"
    },
    {
      "mesh": 4,
      "name": "Object_6"
    },
    {
      "mesh": 5,
      "name": "Object_7"
    },
    {
      "mesh": 6,
      "name": "Object_8"
    },
    {
      "mesh": 7,
      "name": "Object_9"
    },
    {
      "mesh": 8,
      "name": "Object_10"
    },
    {
      "mesh": 9,
      "name": "Object_11"
    },
    {
      "mesh": 10,
      "name": "Object_12"
    },
    {
      "mesh": 11,
      "name": "Object_13"
    },
    {
      "mesh": 12,
      "name": "Object_14"
    },
    {
      "mesh": 13,
      "name": "Object_15"
    },
    {
      "mesh": 14,
      "name": "Object_16"
    },
    {
      "mesh": 15,
      "name": "Object_17"
    },
    {
      "mesh": 16,
      "name": "Object_18"
    },
    {
      "mesh": 17,
      "name": "Object_19"
    },
    {
      "mesh": 18,
      "name": "Object_20"
    },
    {
      "mesh": 19,
      "name": "Object_21"
    },
    {
      "mesh": 20,
      "name": "Object_22"
    },
    {
      "mesh": 21,
      "name": "Object_23"
    },
    {
      "mesh": 22,
      "name": "Object_24"
    },
    {
      "mesh": 23,
      "name": "Object_25"
    },
    {
      "mesh": 24,
      "name": "Object_26"
    },
    {
      "mesh": 25,
      "name": "Object_27"
    },
    {
      "mesh": 26,
      "name": "Object_28"
    },
    {
      "mesh": 27,
      "name": "Object_29"
    },
    {
      "mesh": 28,
      "name": "Object_30"
    },
    {
      "mesh": 29,
      "name": "Object_31"
    },
    {
      "mesh": 30,
      "name": "Object_32"
    },
    {
      "mesh": 31,
      "name": "Object_33"
    },
    {
      "mesh": 32,
      "name": "Object_34"
    },
    {
      "mesh": 33,
      "name": "Object_35"
    },
    {
      "mesh": 34,
      "name": "Object_36"
    },
    {
      "mesh": 35,
      "name": "Object_37"
    },
    {
      "mesh": 36,
      "name": "Object_38"
    },
    {
      "mesh": 37,
      "name": "Object_39"
    },
    {
      "mesh": 38,
      "name": "Object_40"
    },
    {
      "mesh": 39,
      "name": "Object_41"
    },
    {
      "mesh": 40,
      "name": "Object_42"
    },
    {
      "mesh": 41,
      "name": "Object_43"
    },
    {
      "mesh": 42,
      "name": "Object_44"
    },
    {
      "mesh": 43,
      "name": "Object_45"
    }
  ],
  "samplers": [
    {
      "magFilter": 9729,
      "minFilter": 9987,
      "wrapS": 10497,
      "wrapT": 10497
    }
  ],
  "scene": 0,
  "scenes": [
    {
      "name": "Sketchfab_Scene",
      "nodes": [
        0
      ]
    }
  ],
  "textures": [
    {
      "sampler": 0,
      "source": 0
    },
    {
      "sampler": 0,
      "source": 1
    },
    {
      "sampler": 0,
      "source": 2
    },
    {
      "sampler": 0,
      "source": 3
    },
    {
      "sampler": 0,
      "source": 4
    },
    {
      "sampler": 0,
      "source": 5
    },
    {
      "sampler": 0,
      "source": 6
    },
    {
      "sampler": 0,
      "source": 7
    },
    {
      "sampler": 0,
      "source": 8
    },
    {
      "sampler": 0,
      "source": 9
    },
    {
      "sampler": 0,
      "source": 10
    },
    {
      "sampler": 0,
      "source": 11
    },
    {
      "sampler": 0,
      "source": 12
    },
    {
      "sampler": 0,
      "source": 13
    },
    {
      "sampler": 0,
      "source": 14
    },
    {
      "sampler": 0,
      "source": 15
    },
    {
      "sampler": 0,
      "source": 16
    },
    {
      "sampler": 0,
      "source": 17
    },
    {
      "sampler": 0,
      "source": 18
    },
    {
      "sampler": 0,
      "source": 19
    },
    {
      "sampler": 0,
      "source": 20
    },
    {
      "sampler": 0,
      "source": 21
    },
    {
      "sampler": 0,
      "source": 22
    },
    {
      "sampler": 0,
      "source": 23
    },
    {
      "sampler": 0,
      "source": 24
    },
    {
      "sampler": 0,
      "source": 25
    },
    {
      "sampler": 0,
      "source": 26
    },
    {
      "sampler": 0,
      "source": 27
    },
    {
      "sampler": 0,
      "source": 28
    }
  ]
}
